<?xml version="1.0" encoding="iso-8859-1"?>
<!-- Uploaded to: SVG Repo, www.svgrepo.com, Generator: SVG Repo Mixer Tools -->
<svg version="1.1" id="Layer_1" xmlns="http://www.w3.org/2000/svg" xmlns:xlink="http://www.w3.org/1999/xlink" 
	 viewBox="0 0 512 512" xml:space="preserve">
<rect x="161.576" y="163.116" style="fill:#CCCCCC;" width="188.838" height="338.685"/>
<path style="fill:#999999;" d="M256,10.199L256,10.199c-38.544,0-69.789,31.245-69.789,69.789v83.131h139.578V79.988
	C325.789,41.444,294.544,10.199,256,10.199z M256,111.804c-17.571,0-31.815-14.244-31.815-31.815S238.429,48.173,256,48.173
	s31.815,14.244,31.815,31.815S273.571,111.804,256,111.804z"/>
<circle style="fill:#FF1D25;" cx="256" cy="338.614" r="31.811"/>
<rect x="204.208" y="204.168" style="fill:#50A5DC;" width="103.573" height="59.523"/>
<path d="M350.42,152.92h-14.432V79.988C335.988,35.883,300.105,0,256,0s-79.988,35.883-79.988,79.988v72.931H161.58
	c-5.633,0-10.199,4.566-10.199,10.199v338.682c0,5.633,4.566,10.199,10.199,10.199h188.84c5.632,0,10.199-4.566,10.199-10.199
	V163.119C360.619,157.486,356.053,152.92,350.42,152.92z M196.41,79.988c0-32.859,26.732-59.59,59.59-59.59
	s59.59,26.731,59.59,59.59v72.931H196.41V79.988z M340.221,173.318v318.284H171.779V173.318H340.221z"/>
<path d="M256,37.974c-23.167,0-42.015,18.847-42.015,42.015s18.847,42.015,42.015,42.015s42.015-18.847,42.015-42.015
	S279.167,37.974,256,37.974z M256,101.604c-11.92,0-21.616-9.697-21.616-21.616S244.08,58.372,256,58.372
	c11.92,0,21.616,9.696,21.616,21.616S267.92,101.604,256,101.604z"/>
<path d="M256,380.632c23.167,0,42.015-18.847,42.015-42.015c0-23.168-18.847-42.015-42.015-42.015s-42.015,18.847-42.015,42.015
	C213.985,361.785,232.833,380.632,256,380.632z M256,317.001c11.92,0,21.616,9.697,21.616,21.616s-9.697,21.616-21.616,21.616
	s-21.616-9.696-21.616-21.616C234.384,326.698,244.08,317.001,256,317.001z"/>
<path d="M204.212,273.897h103.576c5.632,0,10.199-4.566,10.199-10.199v-59.526c0-5.633-4.567-10.199-10.199-10.199H204.212
	c-5.633,0-10.199,4.566-10.199,10.199v59.526C194.012,269.33,198.578,273.897,204.212,273.897z M214.411,214.371h83.178v39.127
	h-83.178L214.411,214.371L214.411,214.371z"/>
<path d="M316.552,458.76h-81.079c-5.633,0-10.199,4.566-10.199,10.199c0,5.633,4.566,10.199,10.199,10.199h81.079
	c5.632,0,10.199-4.566,10.199-10.199C326.751,463.326,322.185,458.76,316.552,458.76z"/>
<path d="M202.632,458.76h-7.184c-5.633,0-10.199,4.566-10.199,10.199c0,5.633,4.566,10.199,10.199,10.199h7.184
	c5.633,0,10.199-4.566,10.199-10.199C212.831,463.326,208.265,458.76,202.632,458.76z"/>
</svg>